<svg width="19" height="24" viewBox="0 0 19 24" fill="none" xmlns="http://www.w3.org/2000/svg">
<path fill-rule="evenodd" clip-rule="evenodd" d="M4.25 5.8125C4.00136 5.8125 3.7629 5.91127 3.58709 6.08709C3.41127 6.2629 3.3125 6.50136 3.3125 6.75V17.392L5.35225 15.3523C5.45774 15.2468 5.60082 15.1875 5.75 15.1875H14.75C14.9986 15.1875 15.2371 15.0887 15.4129 14.9129C15.5887 14.7371 15.6875 14.4986 15.6875 14.25V6.75C15.6875 6.50136 15.5887 6.2629 15.4129 6.08709C15.2371 5.91127 14.9986 5.8125 14.75 5.8125H4.25ZM2.79159 5.29159C3.17839 4.9048 3.70299 4.6875 4.25 4.6875H14.75C15.297 4.6875 15.8216 4.9048 16.2084 5.29159C16.5952 5.67839 16.8125 6.20299 16.8125 6.75V14.25C16.8125 14.797 16.5952 15.3216 16.2084 15.7084C15.8216 16.0952 15.297 16.3125 14.75 16.3125H5.983L3.14775 19.1477C2.98687 19.3086 2.74493 19.3567 2.53474 19.2697C2.32455 19.1826 2.1875 18.9775 2.1875 18.75V6.75C2.1875 6.20299 2.4048 5.67839 2.79159 5.29159Z" fill="#737877"/>
</svg>
